<?xml version="1.0" encoding="UTF-8"?>
<!DOCTYPE svg PUBLIC "-//W3C//DTD SVG 1.1//EN" "http://www.w3.org/Graphics/SVG/1.1/DTD/svg11.dtd">
<!-- Creator: CorelDRAW 2021 (64 Bit) -->
<svg xmlns="http://www.w3.org/2000/svg" xml:space="preserve" width="35mm" height="7mm" version="1.1" style="shape-rendering:geometricPrecision; text-rendering:geometricPrecision; image-rendering:optimizeQuality; fill-rule:evenodd; clip-rule:evenodd"
viewBox="0 0 3500 700"
 xmlns:xlink="http://www.w3.org/1999/xlink"
 xmlns:xodm="http://www.corel.com/coreldraw/odm/2003">
 <defs>
  <style type="text/css">
   <![CDATA[
    .fil0 {fill:#201E1E;fill-rule:nonzero}
   ]]>
  </style>
 </defs>
 <g id="Camada_x0020_1">
  <metadata id="CorelCorpID_0Corel-Layer"/>
 </g>
 <g id="Camada_x0020_1_0">
  <metadata id="CorelCorpID_1Corel-Layer"/>
  <path class="fil0" d="M3348.76 118.99l-12.44 0 0 -29.17 15.32 0c8.17,0 13.51,6.05 13.51,14.22 0,10.29 -7.11,14.95 -16.39,14.95zm40.52 23.45l0 11.35c0,3.55 0,7.11 -3.9,7.11 -2.5,0 -3.26,-1.78 -3.55,-4.96l-1.06 -10.66c-1.78,-14.23 -5.72,-17.4 -17.83,-19.9 14.27,-1.78 24.9,-7.11 24.9,-23.11 0,-19.9 -17.74,-23.8 -34.42,-23.8l-50.46 0 0 11.35 7.45 0c2.5,0 4.27,1.78 4.27,4.28l0 59.35c0,3.21 -0.42,7.45 -4.27,7.45l-7.45 0 0 11.39 44.75 0 0 -11.39 -6.78 0c-2.5,-0.34 -4.61,-1.4 -4.61,-3.9l0 -26.67 11.77 0c22.35,0 -1.48,43.73 31.96,43.73 17.44,0 19.9,-8.89 19.9,-22.01l0 -9.61 -10.67 0z"/>
  <path class="fil0" d="M3348.38 198.57c-40.09,0 -72.47,-32.68 -72.47,-72.47 0,-39.84 32.38,-72.18 72.47,-72.18 39.84,0 72.18,32.34 72.18,72.18 0,39.79 -32.34,72.47 -72.18,72.47zm0 -157.43c-46.91,0 -84.88,38.01 -84.88,84.58 0,46.9 37.97,84.58 84.88,84.58 46.57,0 84.63,-37.68 84.63,-84.58 0,-46.57 -38.06,-84.58 -84.63,-84.58z"/>
  <path class="fil0" d="M796.53 362.44c0,0 1.61,0.13 0,0zm-59.06 115.06c-9.23,-39.92 -37.55,-69.34 -73.74,-86.99 -0.77,-0.42 -1.32,-1.82 -1.32,-2.75 0.05,-0.8 0.98,-2.24 1.61,-2.33 60.24,-6.73 149.06,-12.15 196.68,32.09 11.77,11.85 1.49,-30.31 -0.84,-35.14 -34.42,-73.36 -114.98,-64.47 -182.8,-64.64 -4.83,0 -9.91,1.31 -14.35,-1.56 0.25,-0.68 0.25,-1.45 0.68,-1.66 45,-29.08 64.64,-69.8 61.81,-122.85 0.08,-72.68 -60.41,-132.29 -129.72,-144.48 -13.92,-2.79 -28.06,-4.78 -42.29,-6.09l-273.47 0 -1.78 0 -1.36 0c-2.53,0 -2.53,9.18 0,9.18l1.36 0 0 0 58.55 0c47.07,-0.38 93.72,11.6 135,34.29 43.52,24 75.48,66.8 83.78,116.2 12.02,69.14 -24.43,123.96 -98.72,114.64 -63.25,-7.83 -113.58,-55.62 -147.41,-106.76 -13.46,-20.79 -25.02,-42.54 -29.59,-67.44 -0.59,-2.41 -1.4,-5.92 -4.28,-6.39 -0.63,-0.08 -1.86,0.89 -1.99,1.65 -0.46,2.16 -0.63,4.4 -0.71,6.65 0.59,44.02 -1.36,89.66 -0.05,133.43 -2.2,62.1 30.4,115.06 92.8,118.45 33.99,0.76 68.03,0 102.06,-0.34 11.26,-0.25 22.36,1.14 32.98,4.06 81.03,20.83 76.58,146.69 19.48,191.52 -30.44,27.47 -67.66,43.18 -108.04,49.74 -40.17,10.88 -90.64,8 -132.08,8.34 -0.59,-0.04 -2.54,0.04 -3.14,0 -2.53,0 -2.53,9.23 0,9.23 0.64,0.04 2.38,-0.04 3.14,0l51.18 0c47.12,1.65 94.32,0.59 141.61,0.97 44.36,-0.72 89.02,2.71 132.92,-5.03 87.97,-13.09 145.04,-85.18 132.33,-173.91 -0.03,-0.55 -0.25,-1.52 -0.29,-2.08z"/>
  <path class="fil0" d="M3076.43 443.72c-57.36,1.44 -114.76,0.13 -172.21,0.56 -25.35,2.15 -35.22,-6.65 -24.17,-31.63 28.7,-70.74 59.73,-140.46 89.62,-210.65 3.3,-7.45 10.24,-23.45 17.91,-9.82 27.26,55.67 50.2,113.45 75.64,169.97 7.07,16 13.93,32.13 21.21,48 5.38,11.05 8.22,31.2 -8,33.57zm-683.77 -100.75c-29.42,1.99 -59.01,0.72 -88.64,0.85 -5.63,0 -10.8,-2.08 -16.22,-3.39 -24.46,-5.84 -29.29,-32.81 -29.8,-54.31 0.42,-27.14 0.17,-54.32 0.17,-81.49 -0.72,-142.62 -10.71,-136.44 134.2,-133.95 66.04,1.95 108.03,54.87 109.9,118.58 6.64,75.23 -26.97,147.91 -109.61,153.71zm-564.64 -9.14c-39.63,16.04 -83.74,8.59 -125.56,10.03 -36.58,-1.1 -47.96,-28.83 -45.81,-61.98 -0.04,-25.56 -0.04,-51.13 -0.04,-76.66l0.04 0c0,-27.94 -0.08,-55.92 0.09,-83.86 -1.44,-19.77 7.75,-41.32 28.28,-47.2 7.74,-2.42 15.36,-3.98 23.45,-3.98 25.57,0.08 51.06,0.12 76.63,0.12 17.86,0 34.84,4.58 50.92,11.48 90.93,39.37 87.25,219.62 -8,252.05zm-637.07 109.85c-56.6,1.61 -113.42,0.09 -170.06,0.6 -21.8,1.65 -39.71,-4.15 -27.85,-29.76 28.87,-66.47 57.06,-133.27 85.93,-199.73 3.77,-8.76 8.3,-17.23 12.62,-25.74 1.48,-2.71 6.56,-2.96 8.21,-0.34 34.5,66.13 60.45,136.95 91.78,204.81 4.15,9.48 8.43,18.92 12.11,28.57 3.6,9.23 -2.79,20.03 -12.74,21.59zm2161.11 192.49c-35.39,-9.82 -52.91,-42.12 -67.73,-72.9 -28.79,-63.03 -56.85,-126.45 -85.09,-189.78 -37.59,-85.3 -74.89,-170.73 -112.39,-256.03 -12.24,-27.72 -24.77,-55.28 -36.79,-83.05 -2.75,-6.23 -6.9,-8.34 -13.12,-7.71 -18.21,1.82 -36.5,3.6 -54.66,5.72 -1.86,0.21 -4.4,2.45 -4.91,4.27 -6.68,29.51 -11.26,59.61 -24.38,87.12 -56.77,131.7 -114.3,263.1 -171.49,394.59 -19.99,47.79 -39.33,96.31 -92.37,114.81 -9.74,3.6 -19.27,4.1 -28.2,-1.44 -21.8,-14.86 -33.53,-40.56 -43.18,-64.22 -24.68,-61.13 -36.7,-136.36 -97.11,-173.69 -14.69,-9.78 -31.75,-14.61 -47.16,-22.91 -2.63,-1.52 -2.84,-6.09 0,-7.36 27.72,-7.24 55.62,-14.48 80.6,-29.17 36.28,-21.08 59.99,-51.26 69.77,-92.67 9.94,-50.59 1.23,-104.47 -35.99,-142.32 -48.98,-50.25 -121.54,-64.85 -189.06,-66.89 -51.09,-0.76 -102.23,-0.17 -153.41,-0.38 -50.34,0 -100.63,-0.04 -151.01,0 -6.39,0 -12.78,0.13 -19.13,0.59 -2.33,0.18 -4.44,1.87 -4.7,4.53 -0.34,3.98 -0.68,7.96 -0.59,11.94 0.04,10.29 1.18,12.07 11.68,14.61 8.55,2.07 17.06,3.76 25.23,7.36 25.1,10.16 32.01,34.34 30.23,59.31 0.04,145.42 0.04,290.83 0,436.24 2.83,37.81 -13.47,62.66 -52.12,68.5 -67.68,12.36 -86.4,-150.79 -120.73,-194.1 -19.18,-34.16 -53,-55.58 -89.49,-67.73 -2.67,-1.36 -6.65,-2.37 -5.38,-6.48 4.06,-6.6 16.51,-6.18 23.45,-8.93 27.94,-7.41 54.02,-18.54 77.52,-36.03 70.44,-51.18 73.49,-164.12 13.67,-224.7 -49.19,-48.89 -120.82,-62.65 -187.62,-64.64 -100.63,-1.1 -201.3,-0.21 -301.92,-0.47 -22.69,1.4 -27.31,-6.3 -25.83,22.74 0.34,8.29 10.25,9.48 16.64,10.32 8.98,0.77 16.72,4.7 24.64,8.6 23.24,10.5 24.85,37.72 25.78,60.11 -0.3,41.53 -0.09,83.1 -0.09,124.63 0,74.55 -0.12,149.1 0,223.65 0.04,30.31 0.6,60.49 -0.42,90.72 -0.42,10.87 -1.61,21.92 -6.05,31.87 -8.81,20.7 -32.43,28.74 -53.05,31.96 -23.32,0.51 -44.83,-17.78 -56.64,-36.62 -17.35,-27.77 -29.59,-58.29 -43.43,-87.84 -45.05,-100.37 -89.37,-201.04 -133.69,-301.7 -25.87,-59.18 -51.99,-118.24 -78.7,-177 -2.29,-5.21 -5.8,-7.41 -11.18,-6.9 -18.96,1.86 -37.97,3.77 -57.02,5.89 -3.64,0.42 -4.74,3.76 -5.12,7.07 -4.57,53.21 -30.52,100.11 -50.97,148.41 -33.06,75.99 -65.79,152.15 -98.55,228.31 -18.76,43.09 -37.64,86.19 -56.73,129.16 -15.11,33.4 -31.92,68.49 -68.45,82.25 -6.56,2.84 -13.13,6.01 -20.03,7.79 -10.67,2.79 -12.06,0.89 -11.85,16.34 0.08,5.16 -0.76,12.78 5.97,13.67 2.33,0.38 4.7,0.55 7.15,0.55 63.08,0.04 126.24,0.09 189.44,0 12.07,0 12.92,-1.14 12.87,-14.26 -0.04,-3.18 -0.29,-6.35 -0.55,-9.53 -0.25,-2.67 -2.07,-4.36 -4.44,-4.95 -7.71,-1.99 -15.45,-4.07 -23.24,-5.51 -17.23,-4.48 -36.83,-13.16 -42.59,-31.2 -2.45,-8.17 -4.95,-16.08 -2.45,-25.57 6.39,-24.12 16.89,-46.43 28.61,-68.11 5.67,-10.62 15.41,-17.65 27.99,-20.83 7.91,-2.03 15.66,-2.92 23.62,-2.92 59.98,-0.08 119.93,-0.04 179.87,-0.04 26.84,-0.63 51.18,9.87 61.89,36.07 9.53,23.58 21.38,46.44 27.9,71.12 9.06,31.15 -24.3,40.93 -47.75,46.78 -9.23,4.19 -8,17.27 -5.38,25.44 2.71,4.83 13.04,2.79 17.91,3.51 160.02,0.09 320.08,0.13 480.1,0 12.24,-0.04 13.04,-1.1 13.13,-14.09 0,-2.42 0.04,-4.83 -0.13,-7.2 -0.26,-4.7 -2.5,-7.37 -7.2,-7.88 -31.24,-3.85 -65.95,-11.93 -69.38,-48.81 -1.19,-47.83 -0.04,-95.88 -0.43,-143.76 -0.29,-14.22 0.73,-29.38 9.7,-41.06 7.87,-9.91 18.12,-15.41 30.82,-16.47 18.29,-1.48 36.87,-2.37 54.95,0.55 25.82,4.11 48.34,15.11 65.24,36.28 27.72,33.57 38.43,76.54 54.47,116.2 24.9,66.51 57.96,121.54 136.19,125.44 49.19,1.9 98.56,0.84 147.79,0.84 58.04,-0.67 116.37,1.36 174.16,-0.76 6.56,-2.54 5.04,-10.75 5.29,-16.47 -0.09,-9.77 -1.27,-10.87 -10.42,-12.48 -9.31,-1.7 -19.04,-2.63 -27.98,-5.76 -27.9,-9.78 -35.35,-20.74 -38.61,-48.47 -0.38,-45.47 0,-91.06 -0.08,-136.61 -0.81,-26.42 8.3,-57.15 39.45,-58.38 47.42,-4.15 97.75,-0.76 127.18,42.25 12.65,17.57 22.09,36.87 29.54,57.19 28.32,77.73 55.04,174.33 154.1,178.65 23.28,0.04 46.78,1.35 70.06,0.42 66.8,0.72 133.77,1.02 200.53,-0.13 6.94,-0.59 6.05,-8.29 6.31,-13.5 0.59,-11.39 -3.56,-14.73 -12.95,-16.09 -14.31,-2.07 -27.9,-6.98 -40.22,-14.43 -46.06,-26.93 -7.88,-80.01 7.7,-114.6 9.99,-20.23 35.86,-24.04 56.27,-23.83 61.5,0.21 123.01,-0.38 184.48,0.21 22.74,2.33 41.62,10.46 50.85,33.53 8.04,19.94 16.55,39.71 25.1,59.43 4.36,9.91 4.32,20.15 3.64,30.57 -2.37,20.95 -30.18,25.82 -46.99,30.1 -3.72,0.88 -5.55,3.26 -5.76,6.64 0.47,7.2 -3.64,21.68 6.86,22.27 40.73,0.72 81.45,0.04 122.18,0.25 35.22,0 70.35,0.05 105.45,0 7.45,-1.05 21.25,3.35 22.82,-6.68 0.55,-14.14 2.66,-19.31 -12.71,-23.33z"/>
  <path class="fil0" d="M186.25 41.05c-41.15,0.09 -82.25,0.17 -123.45,0.13 -5.24,0.55 -14.86,-1.73 -15.96,5.46 0.09,8.13 -3.26,21 6.99,24.22 8.93,2.66 18.29,4.4 26.92,7.83 19.13,7.49 30.53,21.25 31.12,42.46 0.25,6.26 0.25,12.57 0.25,18.83l0 425.49c2.75,27.99 -7.87,55.63 -37,63.8 -6.9,1.95 -13.97,3.22 -20.96,4.87 -6.09,1.44 -7.53,3.09 -7.7,9.65 -1.01,7.41 4.28,14.82 12.32,14.69 29.76,0.04 104.99,0.09 127.77,0 17.35,-0.09 31.11,-15.71 31.11,-33.06l0 -552.91c0,-17.36 -14.06,-31.46 -31.41,-31.46z"/>
 </g>
</svg>
